#!OML:ASF F:\VICON\USERDATA\INSTALL\rory3\rory3.ASF
:FULLY-SPECIFIED
:DEGREES
11
root 0.6659500000000007 17.23 -11.619600000000046 2.609280000000001 2.4009400000000065 2.0036999999999963
lfemur -26.19590000000001 -0.42640800000000056 -27.386499999999995
ltibia 46.3308
lfoot -20.054199999999963 -3.794599999999992
ltoes -0.17004999999999804
rfemur -11.690499999999995 0.20763699999999696 20.19740000000001
rtibia 88.06739999999996
rfoot 6.755909999999998 -6.45005
rtoes 13.578200000000013
lowerback -8.881784189112644e-10 2.4877699999999994 -2.6135199999999914
upperback 0.08116649999999814 2.7394399999999983 -0.6070780000000024
thorax -9.264330000000001 1.4137399999999987 0.16269200000000025
lowerneck -19.1175 -4.403529999999999 -1.3879200000000012
upperneck 7.425910000000005 -6.089410000000001 4.447460000000002
head 5.499939999999999 -2.664459999999999 1.01607
lclavicle 1.2150699999999998e-14 5.118709999999991e-15
lhumerus -53.2645 -12.209700000000002 99.3515
lradius 106.715
lwrist 27.0782
lhand -30.5713 1.275420000000004
lfingers 7.12502
lthumb -3.86915 31.22
rclavicle 1.2150699999999998e-14 5.118709999999991e-15
rhumerus -36.838400000000014 15.3542 -102.394
rradius 97.11870000000002
rwrist -9.6198
rhand -24.925199999999997 -8.881784189112644e-10
rfingers 7.12502
rthumb 1.583839999999992 4.085579999999998
12
root 0.6937459999999991 17.0808 -9.976149999999974 3.52852 1.3691600000000028 1.5741699999999992
lfemur -21.778900000000007 0.07679920000000012 -26.884399999999992
ltibia 48.3002
lfoot -24.616099999999992 -1.4577299999999997
ltoes 0.32422700000000493
rfemur -23.582800000000002 -1.6163699999999905 19.565400000000007
rtibia 93.65760000000004
rfoot 1.5953500000000025 -6.630609999999999
rtoes 6.7941999999999965
lowerback -8.881784189112644e-10 1.9237399999999996 -1.9267600000000045
upperback 0.3951580000000001 2.1288300000000002 -0.6118780000000046
thorax -8.818380000000001 1.08832 -0.0701201000000003
lowerneck -20.4637 -4.141260000000001 -1.347640000000001
upperneck 7.189340000000002 -5.711449999999999 4.309640000000001
head 5.61797 -2.4743700000000004 0.987152
lclavicle 1.3660200000000008e-14 -2.333240000000003e-14
lhumerus -43.533300000000004 -16.293300000000006 98.5687
lradius 105.764
lwrist 26.1822
lhand -35.44 3.53193
lfingers 7.12502
lthumb -8.569360000000003 33.338
rclavicle 1.3660200000000008e-14 -2.333240000000003e-14
rhumerus -40.40160000000001 13.072999999999997 -102.308
rradius 95.92780000000002
rwrist -8.827059999999998
rhand -22.024 -8.881784189112644e-10
rfingers 7.12502
rthumb 4.385629999999999 6.290409999999998
13
root 0.7231429999999992 17.1062 -8.255530000000013 4.490219999999999 0.9015850000000012 2.10229
lfemur -14.9612 -0.5423839999999984 -27.930400000000013
ltibia 46.199799999999996
lfoot -24.958500000000043 1.8088300000000181
ltoes -9.50574
rfemur -33.53750000000001 -3.5734500000000042 19.167300000000015
rtibia 92.48869999999994
rfoot -3.801850000000004 -5.86004
rtoes 3.6357000000000053
lowerback -8.881784189112644e-10 0.9592550000000003 -2.442029999999998
upperback 0.13661900000000027 0.7982079999999997 -0.440832000000001
thorax -8.52725 0.47608999999999974 0.7321969999999998
lowerneck -20.295299999999997 -3.7097999999999995 -1.6415900000000008
upperneck 7.842200000000001 -5.08672 4.283149999999999
head 5.78993 -2.17519 1.0902699999999996
lclavicle 1.1504699999999988e-14 -1.1778000000000006e-14
lhumerus -36.97439999999999 -16.976499999999994 97.6464
lradius 108.648
lwrist 24.405199999999997
lhand -28.589799999999997 3.6885399999999997
lfingers 7.12502
lthumb -1.9555600000000015 33.6593
rclavicle 1.1504699999999988e-14 -1.1778000000000006e-14
rhumerus -45.2941 14.2934 -102.306
rradius 98.5299
rwrist -11.3801
rhand -21.0395 -8.881784189112644e-10
rfingers 7.12502
rthumb 5.3362 7.1189
14
root 0.6883820000000006 17.4085 -6.4581999999999695 4.413350000000001 -1.0615599999999992 2.244489999999999
lfemur -6.553889999999978 -0.14425800000000075 -28.259000000000004
ltibia 41.729800000000004
lfoot -18.500900000000055 -1.733180000000008
ltoes -9.16317
rfemur -39.24650000000004 -2.558759999999992 20.226699999999987
rtibia 83.88880000000005
rfoot -6.65932 -4.93872
rtoes 4.374990000000005
lowerback -8.881784189112644e-10 0.5682940000000003 -4.150990000000001
upperback -1.1221400000000001 -0.024531400000001424 0.34164900000000065
thorax -10.388700000000002 0.23185700000000076 2.737289999999997
lowerneck -16.371800000000004 -2.977600000000001 -1.6094900000000008
upperneck 7.304979999999995 -4.04539 3.56505
head 4.949559999999998 -1.780580000000001 1.0149099999999998
lclavicle 7.131399999999999e-15 2.782989999999999e-15
lhumerus -35.74599999999998 -15.382799999999992 97.8105
lradius 113.851
lwrist 29.663499999999996
lhand -31.0192 0.09090509999999297
lfingers 7.12502
lthumb -4.3016799999999975 30.027199999999997
rclavicle 7.131399999999999e-15 2.782989999999999e-15
rhumerus -52.6533 15.889 -102.327
rradius 102.661
rwrist -13.471800000000002
rhand -19.608000000000004 -8.881784189112644e-10
rfingers 7.12502
rthumb 6.718270000000001 6.810560000000001
